/* XPM */
static const char *robotech_logo[] = {
/* columns rows colors chars-per-pixel */
"256 64 19 1 ",
"  c #050609",
". c #1D223E",
"X c #202648",
"o c #363A53",
"O c #50556F",
"+ c #D98449",
"@ c #183592",
"# c #6B718C",
"$ c #858EAC",
"% c #A3A8B9",
"& c #B8BBC9",
"* c #C9D0DF",
"= c #DFE0E3",
"- c #E1E6F0",
"; c #ECF0F6",
": c #F3F8FC",
"> c #FDFDF8",
", c #FBFDFE",
"< c #FEFFFC",
/* pixels */
"><<<<<<<>><<<<<<><<,,,,,<,<<<><<<<<,<<<<>>>><<<<<<<<<<<<<<<<<<<<<<<<<<<<<<<<<<<<<<<<<<<<<<<<<<<<<<<<<<<<<<<<<<<<<<<<<<<<<<<<<<<<<<<<<<<<<<<<<<<<<<<<<<<<<<<<<<<<<<<<<<<<<<<<<<<<<<<<<<<<<<<<<<<<<<<<<<<<<<<<<<<<<<<<<<<<<<<<<<<<<<<<<<<<<<<<<<<<<<<<<<<<<<<<<<<<",
"><<<<<<<><<<<<<<><<<<,,:,,,,<<<<<<<<<<<<>>>><<<<<<<<<<<<<<<<<<<<<<<<<<<<<<<<<<<<<<<<<<<<<<<<<<<<<<<<<<<<<<<<<<<<<<<<<<<<<<<<<<<<<<<<<<<<<<<<<<<<<<<<<<<<<<<<<<<<<<<<<<<<<<<<<<<<<<<<<<<<<<<<<<<<<<<<<<<<<<<<<<<<<<<<<<<<<<<<<<<<<<<<<<<<<<<<<<<<<<<<<<<<<<<<<<<<",
"><<<<<<<<<<<<<<<><<<<<>><<<<<<><<<<<<<><<<<<<<<<<<<<<<<<<<<<<<<<<<<<<<<<<<<<<<<<<<<<<<<<<<<<<<<<<<<<<<<<<<<<<<<<<<<<<<<<<<<<<<<<<<<<<<<<<<<<<<<<<<<<<<<<<<<<<<<<<<<<<<<<<<<<<<<<<<<<<<<<<<<<<<<<<<<<<<<<<<<<<<<<<<<<<<<<<<<<<<<<<<<<<<<<<<<<<<<<<<<<<<<<<<<<<<<<",
"<<<<<<<<<<<<<<<<<<<<>>>><<<,<<<<,<<<<<,<,,,<<<<<<<<<<<<<<<<<<<<<<<<<<<<<<<<<<<<<<<<<<<<<<<<<<<<<<<<<<<<<<<<<<<<<<<<<<<<<<<<<<<<<<<<<<<<<<<<<<<<<<<<<<<<<<<<<<<<<<<<<<<<<<<<<<<<<<<<<<<<<<<<<<<<<<<<<<<<<<<<<<<<<<<<<<<<<<<<<<<<<<<<<<<<<<<<<<<<<<<<<<<<<<<<<<<<<",
"<<<<<<<<<<<<<<<<,,<<><<>,,,,<<<<,,,,,<<<<,,,<<<<<<<<<<<<<<<<<<<<<<<<<<<<<<<<<<<<<<<<<<<<<<<<<<<<<<<<<<<<<<<<<<<<<<<<<<<<<<<<<<<<<<<<<<<<<<<<<<<<<<<<<<<<<<<<<<<<<<<<<<<<<<<<<<<<<<<<<<<<<<<<<<<<<<<<<<<<<<<<<<<<<<<<<<<<<<<<<<<<<<<<<<<<<<<<<<<<<<<<<<<<<<<<<<<<",
"<<<<<<<<<<<<<<<<,,,<<<<<,,:-----;:,,,<<,<<,,<<<<<<<<<<<<<<<<<<<<<<<<<<<<<<<<<<<<<<<<<<<<<<<<<<<<<<<<<<<<<<<<<<<<<<<<<<<<<<<<<<<<<<<<<<<<<<<<<<<<<<<<<<<<<<<<<<<<<<<<<<<<<<<<<<<<<<<<<<<<<<<<<<<<<<<<<<<<<<<<<<<<<<<<<<<<<<<<<<<<<<<<<<<<<<<<<<<<<<<<<<<<<<<<<<<<",
"<<<<<<<<<<<<<<<<,,<<,<,:;-*$$$$$%*-;:,,<<<<<<<<<<<<<<<<<<<<<<<<<<<<<<<<<<<<<<<<<<<<<<<<<<<<<<<<<<<<<<<<<<<<<<<<<<<<<<<<<<<<<<<<<<<<<<<<<<<<<<<<<<<<<<<<<<<<<<<<<<<<<<<<<<<<<<<<<<<<<<<<<<<<<<<<<<<<<<<<<<<<<<<<<<<<<<<<<<<<<<<<<<<<<<<<<<<<<<<<<<<<<<<<<<<<<<<<<",
"<<<<<<<<<<<<<<<<<:<<,,;&$O@@@@@@@@O$*:,,<<<<<<<,<<<<<<<<<<<<<<<<<<<<<<<<<<<<<<<<<<<<<<<<<<<<<<<<<<<<<<<<<<<<<<<<<<<<<<<<<<<<<<<<<<<<<<<<<<<<<<<<<<<<<<<<<<<<<<<<<<<<<<<<<<<<<<<<<<<<<<<<<<<<<<<<<<<<<<<<<<<<<<<<<<<<<<<<<<<<<<<<<<<<<<<<<<<<<<<<<<<<<<<<<<<<<<<<",
"<<<<<<<<<<<<<<<<,,,,,*#O@@@@@@@@@@@@O$-,,<<<<<,,<<<<<<<<<<<<<<<<<<<<<<<<<<<<<<<<<<<<<<<<<<<<<<<<<<<<<<<<<<<<<<<<<<<<<<<<<<<<<<<<<<<<<<<<<<<<<<<<<<<<<<<<<<<<<<<<<<<<<<<<<<<<<<<<<<<<<<<<<<<<<<<<<<<<<<<<<<<<<<<<<<<<<<<<<<<<<<<<<<<<<<<<<<<<<<<<<<<<<<<<<<<<<<<<",
"<<<<<<<<<<<,<<><<,,:%#@@@@@@@@@@@@@@@@#&:,<><<,,<<<<<<<<<<<<<<<<<<<<<<<<<<<<<<<<<<<<<<<<<<<<<<<<<<<<<<<<<<<<<<<<<<<<<<<<<<<<<<<<<<<<<<<<<<<<<<<<<<<<<<<<<<<<<<<<<<<<<<<<<<<<<<<<<<<<<<<<<<<<<<<<<<<<<<<<<<<<<<<<<<<<<<<<<<<<<<<<<<<<<<<<<<<<<<<<<<<<<<<<<<<<<<<<",
"<<<<<<<<<<<><>><<,;$O@@@@@@@@@@@@@@@@@@#&:,<>><<<<<<<<<<<<<<<<<<<<<<<<<<<<<<<<<<<<<<<<<<<<<<<<<<<<<<<<<<<<<<<<<<<<<<<<<<<<<<<<<<<<<<<<<<<<<<<<<<<<<<<<<<<<<<<<<<<<<<<<<<<<<<<<<<<<<<<<<<<<<<<<<<<<<<<<<<<<<<<<<<<<<<<<<<<<<<<<<<<<<<<<<<<<<<<<<<<<<<<<<<<<<<<<<<",
"<<<<<<<<<<<><<<,,:%@@@@@@@@@@@@@@@@@@@@@O&:,<><<<<<<<<<<<<<<<<<<<<<<<<<<<<<<<<<<<<<<<<<<<<<<<<<<<<<<<<<<<<<<<<<<<<<<<<<<<<<<<<<<<<<<<<<<<<<<<<<<<<<<<<<<<<<<<<<<<<<<<<<<<<<<<<<<<<<<<<<<<<<<<<<<<<<<<<<<<<<<<<<<<<<<<<<<<<<<<<<<<<<<<<<<<<<<<<<<<<<<<<<<<<<<<<<<",
"<<<<<<<<<<<<>,,,:&@@@@@@@@@@@@@@@@@@@@@@@#*:,<<<<<<<<<<<<<<<<<<<<<<<<<<<<<<<<<<<<<<<<<<<<<<<<<<<<<<<<<<<<<<<<<<<<<<<<<<<<<<<<<<<<<<<<<<<<<<<<<<<<<<<<<<<<<<<<<<<<<<<<<<<<<<<<<<<<<<<<<<<<<<<<<<<<<<<<<<<<<<<<<<<<<<<<<<<<<<<<<<<<<<<<<<<<<<<<<<<<<<<<<<<<<<<<<<<",
"<<<<<<<<<<><,,::*O@@@@@@@@@@@@@@@@@@@@@@@@#-:,<<<<<<<<<<<<<<<<<<<<<<<<<<<<<<<<<<<<<<<<<<<<<<<<<<<<<<<<<<<<<<<<<<<<<<<<<<<<<<<<<<<<<<<<<<<<<<<<<<<<<<<<<<<<<<<<<<<<<<<<<<<<<<<<<<<<<<<<<<<<<<<<<<<<<<<<<<<<<<<<<<<<<<<<<<<<<<<<<<<<<<<<<<<<<<<<<<<<<<<<<<<<<<<<<<",
"<<<<<<<<<><>,,,-#@@@@@@@@@@@@@@@@@@@@@@@@@@%;,<<<<<<<<<<<<<<<<<<<<<<<<<<<<<<<<<<<<<<<<<<<<<<<<<<<<<<<<<<<<<<<<<<<<<<<<<<<<<<<<<<<<<<<<<<<<<<<<<<<<<<<<<<<<<<<<<<<<<<<<<<<<<<<<<<<<<<<<<<<<<<<<<<<<<<<<<<<<<<<<<<<<<<<<<<<<<<<<<<<<<<<<<<<<<<<<<<<<<<<<<<<<<<<<<<",
"<<<<<<<<<<<,,::$@@@@@@@@@@@@@@@@@@@@@@@@@@@@*:<><<<<<<<<<<<<<<<<<<<<<<<<<<<<<<<<<<<<<<<<<<<<<<<<<<<<<<<<<<<<<<<<<<<<<<<<<<<<<<<<<<<<<<<<<<<<<<<<<<<<<<<<<<<<<<<<<<<<<<<<<<<<<<<<<<<<<<<<<<<<<<<<<<<<<<<<<<<<<<<<<<<<<<<<<<<<<<<<<<<<<<<<<<<<<<<<<<<<<<<<<<<<<<<<",
"<<<<<<<<<<>,,:-O@@@@@@@@@@@@@@@@@@@@@@@@@@@@$-,<<<<<<<<<<<<<<<<<<<<<<<<<<<<<<<<<<<<<<<<<<<<<<<<<<<<<<<<<<<<<<<<<<<<<<<<<<<<<<<<<<<<<<<<<<<<<<<<<<<<<<<<<<<<<<<<<<<<<<<<<<<<<<<<<<<<<<<<<<<<<<<<<<<<<<<<<<<<<<<<<<<<<<<<<<<<<<<<<<<<<<<<<<<<<<<<<<<<<<<<<<<<<<<<<",
"<<<<<<<<<>>,,:%@@@@$%%$$@@@@@@@@@@@@#$%$$@@@@*:<<<<<<<<<<<<<<<<<<<<<<<<<<<<<<<<<<<<<<<<<<<<<<<<<<<<<<<<<<<<<<<<<<<<<<<<<<<<<<<<<<<<<<<<<<<<<<<<<<<<<<<<<<<<<<<<<<<<<<<<<<<<<<<<<<<<<<<<<<<<<<<<<<<<<<<<<<<<<<<<<<<<<<<<<<<<<<<<<<<<<<<<<<<<<<<<<<<<<<<<<<<<<<<<<",
"<<<<<<<<<><,,;O@@@%*,,:-%#@@@@@@@@O$*,<,-$@@@%;<<<<<<<<<<<<<<<<<<<<<<<<<<<<,*%%%%%%%%%%%%%%%%%&*:<<<<<<<<<<<<<<<<<<<<<<<<<<<<<<<<<<<<<<<<<<<<<<<<<<<<<<<<<<<<<<<<<<<<<<<<<<<<<;&%%%%%%%%%%%%%%%%%%%%%%%&:<<<<<<<<<<<<<<<<<<<<<<<<<<<<<<<<<<<<<<<<<<<<<<<<<<<<<<<",
"<<<<<<<<<,<,:*@@@$:,,,<,,%@@@@@@@@&:,,,,,:$@@#-<<<<<<<<<<<<<<<<<<<<<<<<<<<,=#X................o#%-,<<<<<<<<<<<<<<<<<<<<<<<<<<<<<<<<<<<<<<<<<<<<<<<<<<,,,<<<<<<<<<<<<<<<<<<<<<;%o.......................O=<<<<<<<<<<<<<<<<<<<<<<<<<<<<<<<<<<<<<<<<<<<<<<<<<<<<<<<",
"<<<,<<<<<<<,;$@@$;,><>><,:$@@@@@@$;,,<<<<,;$@@*,<<<<<<<<<<<<<<<<<<<<<<<<<<<$oXXXX..XXXXXXXXXXXXXX#=,<<<<<<<<<<<<<<<<<<<<<<<<<<<<<<<<<<<<<<<<<<<<<<<<<,,,<<<<<<<<<<<<<<<<<<<<<*O.XXXXXXXXXXXXXXXXXXXXXXXo&<<<<<<<<<<<<<<<<<<<<<<<<<<<<<<<<<<<<<<<<<<<<<<<<<<<<<<<",
"<<<,<<<<<<:,:#@@*,<:,,<<<,*@@@@@@*:<<<<>>,,*O@%:,<<<<<<<<<<<<<<<<<<<<<<<<<<#.XXXXXXX.XXXXXXXXXXXXX#-<<<<<<<<<<<<<<<<<<<<<<<<<<<<<<<<<<<<<<<<<<<<<<<<<,,,<<<<<<<<<<<<<<<<<<<<<&o.XXXXXXXXX.XXXXXXXXXXXXXO=<<<<<<<<<<<<<<<<<<<<<<<<<<<<<<<<<<<<<<<<<<<<<<<<<<<<<<<",
"<<,,<<<<<<,,-O@#;<,%-,<><,;@@@@@#-,<><,;&;>:#@$;,<<<<<<<<<<<<<<<<<<<<<<<<<;O.X.XXXXXXXXXXXXXXXXXXXo%,<<<<<<<<<<<<<<<<<<<<<<<<<<<<<<<<<<<<<<<<<<<<<<<<<,<<<<<<<<<<<<<<<<<<<<<<*o.X.XXXXXXXXXXXXXXXXXXXXo#,<<<<<<<<<<<<<<<<<<<<<<<<<<<<<<<<<<<<<<<<<<<<<<<<<<<<<<<",
"<<,,<<<<<,<,*@@$:,-oO*<<,,:#@@@@#-,<<<;#O=<,$@#-,<<<<<<<<<<<<<<<<<<<<<<<<<*o.XXXXXXXXXXXXX.XXXXXXX.#=<<<,<<<<<<<<<<<<<<<<<<<<<<<<<<<<<<<<<<<<<<<<<<<<<,<<<<<<<<<<<<<<<<<<><<<=O.X..XXXXXXXXXXXXXXXXXXXO=<<<<<<<<<<<<<<<<<<<<<<<<<<<<<<<<<<<<<<<<<<<<<<<<<<<<<<<<",
"<<,,<<<<<><,&@@&:,*  O&;,::#oOOo$;,<>&#  *<,%@O=,<<<<<<<<<<<<<<<<<<<<<<<<<%o.XXXXXX.........XXXXXXXO&<<<<<<<<<<<<<<<<<<<<<<<<<<<<<<<<<<<<<<<,,,<<<<<<,<<<<<<<<<<<<<<<<<<<<<<<;%o......XXXXXXX.......X#&,<<<<<<<<<<><<<<<<<<<<<<<<<<<<<<<<<<<<<<<<<<<<<<<><<<<<<<",
"<<,,<<<<<><:%@@*:,*.  o$;,>#O##O#;>>$o  .=<,*@o=,<<<<<<<<<<<<<<<<<<<<<<<<<$oXXXX.oOOOOOOOOOOXXXXXXXX&<><<<<<<<<<<<<<<<<<<<<<<<<<<<<<<<<<<<<<<<,,<<<<<,,<<<<<<<<<<<<<<<<<<<<<<<-%OOOOOOoXXXXXXoOOOOOO$*<,<<<<<<<<<<><<<<<<<<<<<<<<<<<<<<<<<<<<<<<<<<<<<<>><<<<<<<",
"<<,,<<<<<<<:%@@*:>;#...O;>=++++++=>:O...%;<,-Oo*,<<<<<<<<<<<<<<<<<<<<<<<<<#XXXXX.#%&&&&&%&&%#X.XXXX.%<<<<<<<<<<<<<<<<<<<<<<<<<<<<<<<<<<<<<<<<<<,<<<<<<<<<<<<<<<<<<<<<<<<<<<<,,<:*&&&&%OXXXX.X#&&&&&*<,:,<<<<<<<<<<<<<<<<<<<<<<<<<<<<<<<<<<<<<<<<<<<<<<<><<<<<<<<",
"<<,,<<<<<<<:%@@*:><;%$%:>>&++++++&>>;&$%;,,,*OX*,<<<<<<<<<<<<<<<<<<<<<<<<:O.XXXX.&,,,,,<,,,,&O.XXXX.%<,<<<<>;-===-;,<<<<<<:-=========-:,<<<<<<<<,,,:;====-:<<<<<<<<<<<<<<<<<<<,,,,,,,=#.XXXXo%<,,,,<,,,:-================;<<<<<,;-==========:,;==:<<<<<<<<,;==:<",
"<<,,<<<<<<<:%@@*:><<:::,>=++++++++=>>>:>>,,:&@@*,<<<<<<<<<<<<<<<<<<<<<<<<*O.XXXXo&,,,,,<<<,,*O.XXX.o&<<<<,:*$OXoXO%=,,,,,<&OXoooooooXO&;,,<<<<<><,;*#oXoo#&;,,<<<<<<<<<<<<<<<<<<<,,,<*O.XXX.O*<<<<,<,,<=#XoooXooXoooooooo$,,,,:=$OooooooooXo=;$oo&:,<<<<>,:$oo&:",
"<<,<<<<<<<<:%@@&:>>,<,,,>&++++++++&>><<<<<,,%@@*,<<<<<<<<<<<<<<<<<<<<<<<<&oXXXX.O*,,,,<<<,,<%oXXX..O*<<<<=$ooX.XXooO&,,,,,$......XX..Xo$;<,<>><<<*#oXXX.XXo#=,,><<<<<<<<<<<<<<<<<<<<<&oXXXX.O-,<<<<<<<,*X....XXXXX.XXXX..#,,,-$ooXXX..XXX..o&=o..o*,<<><>,-o..o&",
"<<,<<<<<<<<:%@@$:<<<<<,<>==++++++==>><,,<>,,$@@*,<<<<<<<<<<<<<<<<<<<<<<<<$oXXXX.$;<<<<<<<<,&OXXXXX.$-<<<*#o..XXXXX.XO*<,,-#.X.XXXXXXXX.o%<<<<<<:&OX.XXXXXX.X#-,,<<<<<<<<<<<<<<<<<<<,:%.XXX..O:<<<<<<<<;%.XXXXX.XXXXXXXX.o%,:&OoXXXXXXXXXXXXO-&X.XX%,<<><,:&XX.X%",
"<<,<<<<<<<,:%@@#;,<<<<<<<>>=++++=>>>><<<<,<:#@@*,<<<<<<<<<<<<<<<<<<<<<<<<#XXXXX.O##########OX.XXX.o%,<<*#o.XX..XXXXX.#-,,*O.XX.....XXXX.#;<<<<:%O..XX.XXXXX.o%<,<<<<<<<<<<<<<<<<<<<<;$.XXX.X#<<><<>><<-#XXXX.........X.X#-:*O..XXX..X.....o%:$XXXX%,<<<<,:$XXXX$",
"<<<<<<<<<<,:%@@@*:,<<<<<<>>>=&&=>>>>><,,<<<*O@@*,<<<<<<<<<<<<<<<<<<<<<<<:O.XXXXX............XXXXXX#=<<-#XXXX.Xoo.XXX.o&,<&O.XXoOOOOoXXX.O*<<<,&O.XX..ooXXXXX.#-<<<<<<<<<<<<<<<<<<<<<=#.XXXXo%<<><<><><=O.XXXOOOOOOOOOOO#*,=#......OOOOOOOO$:;#XXXo*,<<<<,:#XXXX%",
"<<<<<<<<<,<:%@@@%:,<<<<<>>>>>>>><<<><<,,<<,$@@@*,<<<<<<<<<<<<<<<<<<<<<<<*O.XXXXXXXX.XXXXXXXXXXXX.O&,<:$o.XXXO#$#OXXXX.$:<%oXXX#&&&%#oXX.O&<<<=#XXXXoO#$#oXXX.o&<,<<<<<<<<<<<<<<<<<<<*oXXXXXo&<,<<<<<<<=o.X.o&&&&&&&&&&&=,;$X...XO#%&&&&&&&,,;OXXXo:,<<><<;OXXXo*",
"<<<<<<<<<><:$@@@#-,<<<<<<<<><<<,,,,<<<,,<<-O@@@*,<<<<<<<<<<<<<<<<<<<<<<<%o.XXXXXX.XXXXXXXXXXXX.Xo%:,<*O.X.X#*,,<&O.XX.#=<$.XXX%<,<<*O.X.O&<,,%o.XXo$-,<:%oXXXX$<,<<<<<<<<<<<<<<<<<<<&XXXXX.O-,<<<<><<,*XX.XO,,,,<<:,,,,,,*oXXXo#*,,,<,,,,,,,=o.XXO:,<<<<<-oXXXo;",
"<<<<<<<<<<>:#@@@@%:,<<,,<,<<<><<<<<<,,,,,:%@@@@&:<<<<<<<<<<<<<<<<<<<<<<<$oXXXXX.XXXXXXXXXXXXXXXo%;,,,$X.X.#=:,<<,$XXX.#=;#.XXo&<,<<*OXX.O*<<=#.XXo$:,><,=#.XXX$<<<<<<<<<<<<<<<<<<<<:%.XXXXX#<<<><<<<<:%.XXo$<,<<<<<,<<>,;$XXXXO;:,<<<<<<<<<,&.XXX#:,<><<,*XXXX#:",
"<<<<<<<<,<<:#@@@@@-,<<,,,,<<>><<><<<<<,,,*O@@@@&:<<<<<<<<<<<<<<<<<<<<<<<#.XXXXXXXXXXXXXXXXXXX.O%;,,,=O.X.o&,,<<<<&O.X.#=*O.X.O*,,<-$XXX.#:<<&o.X.#-,<<>,:$.X.X$<<<<<<<<<<<<<<<<<<<,;$.XXXXX#<,,<<<<<<-$.XXo%,,<<<,<<<<<,-OXXXo*,,<,<<<<<<<,:%XXXX$:,,,,,:%X.XX$:",
"<<<<<<<<<<,:O@@@@@#;,,<<<<<<<><<<<<,<<<,:#@@@@@$;<<>><,<<<<<<<<<<<<<<<<:O.XXXXX...XXXXXXXXX.O$&;<<<<&O.X.#=<<<,,<&OXX.#=*O.XXoOOOOOo.X.o%<<<%.X.X$<,<<<<,$.X.X$<<<<<<<<<<<<<<<<<<<<=#.XXXXo%<<<<<<<<<-#XXXXOOOOO#*<<,<<,*XXXXO:,<<<<<<<<<<,;$XXXXOOOOOOOOoXXXX%,",
"<<<<,,<<<<,;@@@@@@@*:<<<<<<<<<<<<<,,<<<,&@@@@@@$;><>>>,<<<<<,<<<<<<<<<<=OXXXX.oO###OXXXXXXXX$-,<>><<%oXX.$:<<<,,<%oXX.$:%o.XXX.......X.O&<,;#.X.o%<<<<<<;$.X.o%<<<<<<<<<<<<<<<<<<<<*OXXXX.o&<<<<>><<,=O.XXXX....o%<<<<<:&.XXX$,,<<<<<<<<<<<;OXXXXXX.......XXXo*,",
"<<<<,,<<<<,-@@@@@@@%:,<<<<<<<<<<<<,,<<<,$@@@@@@#-><<,<<<<<<<<<<<<<<<<<<&oXXXX.O%***%o.XXXX.X%:<<>><<$XXXX%<<<<<,,$XXXX%<$X.XXXXXXXXX.X.o$;<*#.X.O*<<<<<<=#.XXO&<<<<<<<<<<<<<<<<<<<<&XXXXX.O-<,<<<<<<,*o.XXXXXXXXo&<<<<<;$XXXo%,<<<<<<<<<<<<-oXXXXXXXXXXXXXXX.o;,",
"<<<<<<<<<<:&@@@@@@@*:,<<<<<<<<<<<<,,<<<,&O@@@@@@-<<<,,<<<<<<<<<<<<<<<<<%oXXXXX#-<<<-#XXXXXX.O*<<<<<;#.X.o&<<>><<;#.XXo&,#.XXX...XXXXXXX.O&<&OXX.#=<<><,<*O.XXO=<<<<<<<<<<<<<<<<<<<:%.XXXX.#:<,<<<<,,:&.XXXX....X#;<,<<<-#XXXo*,<<<<<<<<<<<,*XXXX........XXXXXO:<",
"<<<<><<<<<:$@@@@@@$;,<<<<<<<<<<<<<<<<<<,,$@@@@@@*,<<<,<<<<<<<><<<<<<<,<#XXXXX.$;,,,<&o.XXXXX.%:<<,<=O.X.O*<<<<<<=#.X.O&-#.XXXooooooXXXXXo$<%oXX.#:<<><<<&o.X.#;<<<<<<<<<<<<<<<<<<<;$..XX.X$<<<<<<<,,;$.XXXXooooO=<><<<<=o.XXo:,<><<<<<<<<<:%XXXXooooooooXXXXX#;<",
"<<<<<<<<><:#@@@@@@-::<<<<<<<<<<<<<<<<<<,,*O@@@@@&:,<<<><<<<<<><<<<<<<<;O.XXXX.&,,<,<;#.XXXXX.#=<<<<&O.X.#=<<<<><&O.X.O**O.X.O$%%%%$#XXXX.#,%XXXX$<<<>><<%X..X#<,<<<<<<<<<<<<<<<<<<=#.XXX.o%<<<,<<<,<-#X.Xo$$%%%-,<<<<<<=oXXXO,,<><<<<<<<<<;$XX.X#$$%$%$$OXX.X$:<",
"<<<<<<<<>,-@@@@@@$;,,>><<<<<<<<<<<<<<<<<,:$@@@@@$-,,<<><<<<<<><<<<<<<<*O.XXX.o*<,><<<%oXXXXX.X&,<<<&o.X.#=<<<<<<$X.X.$:&oXX.#-;;;;;-$XXX.#;$.XXX$<,>><<=#...o%<,<<<<<<<<<<<<<<<<<<*O.XXX.o&<<<,<<,,,=O.X.o*;;;;,<<<><<,&.XXXO,,<<<<<<<<<<<;#XXXX*;;;;;;-#XX.X*,>",
"<<<<<<<<<:%@@@@@@*:,,>><<<<<<<<<<<<<<<<<,,*@@@@@@*,,<<<<<<<<<<<<<<<<<<&oXXXX.O=<>><<<-O.XXXXX.#-<<<%oXX.O*<<,,<*OXX.o%<$XXXX$<<<,,,<%XXX.$:$.XX.#;<<<<:%o.X.O*,,<<<<<<<<<<<<<<<<<<&oXXXX.O*<,<,<<<,,*oXX.O:<,<<<<<<,,,,&..XXO;,,<<<<<<<<,,-oXXXo;,<<<<,;OXXXo-,>",
"<<<<<<<<,;#@@@@@#;,,>><<<<<<<<<<<<<<<<<<<,:#@@@@@%;,<><<<<<<<<<<<<<<<<%oXXXX.#-<<>><,,$o.XXXX.o&,<<&O.XXX$;<<,*#XXX.#=,$.XXo%<<<<,<-#XXXo%<$..X.o&<<<;%OXX.o$:,<<<<<<<<<<<<<<<<<<,%.XXXXXO:<<<<<<>,,&.XXX#<,<<<<<<<<<<,*..XXo$,<<<<<<<<<<,-XXXXO:,<<,<,-oXXXO;,<",
"<<<<<<<,,&@@@@@@&:,<><<<<<<<<<<<,<<<<<<<<,,%@@@@@#*,<>><<,<<<<<<<<<<<<#XXXXX.$;<<><<,<*O.XXXXXX#-<<*O.XX.O$&&$#o.X.o%<-#.XXo%=****&$oXX.O*<%o.XXXO%&%$O.XX.O*<<<<<<<<<<<<<<<<<<<<;$.XXXXX#<<><<,<>>:%.XXo#***********=,=oXXXXo$&********-:*XXXX$:>><,<,&XX.X#:,<",
"<<<<<,,,-#@@@@@@-,,<<<<<<<<<<<<<,<<<<<<<<<,-#@@@@@$;<>>><,<<<<<<<<<<<:O.XXXX.%,<<<<<<<:$X.XXXX.o&<<:#XXXX..Oo..XX.o$-<*O.XXoO#####OX.XXX$;<*O.XXX.XOo...XXo%,<<<<<<<<<<<<<<<<<<<<=#.XXXXo%<<><<,<<<;$XXXXO############-;#.XXX..o########%;%XXXX%:<><<<:%XXXX$:,<",
"<><,,,,:%@@@@@@$;,<<<<<<<<<<<<<<<<<<<<<<<<,,$@@@@@@*,<<><,<<<<<<<<,<<=O.XXXXX&<<<<<<<<<*O.XXXXX.$;<<%o.XX.XXXXXX.X#=,<&OXXXXX......XX.X#*<,;$X.XXXX..X..Xo$:<<<<<<<<<<<<<<<<<<<<<*O.XXX.o&<<<<<<<<<=#XXXXXX.....XX.X.o*:&oX.X.XXX...X.XX#;#XXXo&:<><<<;$X.XX&,<<",
"<<,<>::-O@@@@@@*,<<<<<<<<<<<<<<<<<<<<<<<<<>,*@@@@@@$-,>><,<<<<<<<<<<<&o.XX..O*<<<<<<<<<:#.XXX.XX#=<<;#XXXXX.XXXXX#*<<<%oXXXXX.XX.XXXXXo%<<,<*OXXXXXXXX.Xo$;,<<<<<<<<<<<<<<<<<<<<<&X.XXX.O-<<<<<<<<<*oXXXXXXXXXXXXXX..O:,-#XX.XXXX.X.XX.o%-O..Xo-,<<<<,;O.X.X-,<<",
"<,,<,,;#@@@@@@#;,<<<<<<<<<<<<<<<<<<<<<<<<<<,:#@@@@@@&:,<<<<<<<<<<<<<<%o.....#=<<,<<<<<,<&O..XXXo%,<<,=#X...XXXXo$=,<<<$.XXXXXXXX...X.O&:<,,<,&O..XX..X.O%:,,<<<<<<<<<<<<<<<<<<<<<&.X....#:<<<<<<<,<*X..XXXXXX.XXX.X.o&,,,=#XXXXX......X#;-o..XO:,<<<<,;oX..o;,<<",
"<<<,,:%@@@@@@@%:<<<<<<<<<<<<<<<<<<<<<<<<<,<,,$@@@@@@O*,,,<<<<<<<<<<,<*o....O&:<<<<<<<<<<:%OX.XO%;,<<<,=%Oo..XO$&-,<<<<$............O$*:<<<<<<:*$O...o#%*;<,<,><<<<<<<<<<<<<<<<<<<&o....O&<<<<<<<<<<*o..............O&:,<<,=%#........X$=,=o..X$:,<<<<<;o...$:<<<",
",<,,,*#@@@@@@@*,<<<<<<<<<<<<<<<<<<<<<<<<<,<<,*@@@@@@@$-,,<<<<<<<<<<<<:&%%%%&;<<<<<,<<><<<;*%%%*:<<<<,,<;*&%%%*-,<<<<<,*%%%%%%%%%%%%&;,,<><<<<<,-&%%%&*;<,<<<<,<<<<<<<<<<<<<<<<<<<;&%%%%&;<<<<<<<<<<-&%%%%%%%%%%%%%%*:<<><,,;*%%%%%%%%%=<,;&%%%-,<<<<<,:&%%%=,<<<",
",<,,;$@@@@@@@#;<<<<<<<<<<<<<<<<<<<<>><<<,<<<,:#@@@@@@@&:,<<<<<<<<,<<<<<<<<<<<<<<<<<<<>><<<<<<<<<<<,<<,<<<<<<<<<<<<,<<,<<<<<<<<<<<<<<<,><><<<<<<,<<<<<<<<>><<<<<,<<<<<<<<<<<<<<<<<<<<<<<<<<<<<<<<<<<<<<<<<<<<<<<<<<<<<<<>><<,<<<<<<<<<<<<<<<<<<<<><<<<,,<<<<<,<<<",
"<,<,&@@@@@@@@$;<<<<<<<<<<<<<<<<<<<>>><<<,,<<<,$@@@@@@@#*,<<<<<<<<<<<<<<,<,,,<<<><<<><>><<,,<,,<<<,,<<<<<,,,,<<<><<,,<<<,,,<<<,,<<,,,,<<<><<<<<,,<<<<<<<<>>><<<,,<<<<<<<<<<<<<<<<<,,,,,,,,<<<<,<<<><<,,<<,,<<,,<<<,,,<<<>><<,,<<<,<,<<<<<<<,<<<,<><<<<<,,,,,,,<<<",
"<,,-O@@@@@@@@*:<<<<<<<<<<<<<<<<<<<<><<<<<<<<,,*@@@@@@@@$;,<<<><<<<<<<<,<<<,<<<<<<<<><<<<<,<<<<<<<<<<<<,<,,<,,<<<<<,<<<,,<<<<<<<<,,<<<<<<<<<<<<<<<<<<<<<<>>><<<<<,<<<<<<<<<<<<<<<<<,<<<<<<<<<<,<<<<><<<<<<<<<<<<<<<<<<<<><<<<<><,<,,<<<<<<<<<<<<<<<<><<<:<,,,<<<<",
"<,;$@@@@@@@@O-,<<<<<<<<<<<<<<<<<<<<<<<<<<<<<,,;O@@@@@@@@&:,<>><<<<<<<<<<<<<<<<<<<<<<<<<<<<<<<<<<<<<<<<<<<<<<<<<<<<<<<<<<<<<<<<<<<<<<<<<<<<<<<<<<<<<<<<<<<<<<<<<<<<<<<<<<<<<<<<<<<<<<<<<<<<<<<<<<<<<<<<<<<<<<<<<<<<<<<<<<<<<<<<<<<<<<<<<<<<<<<<<<<<<<<<<<<<<<<<<<",
",:*@@@@@@@@@$;<<<<<<<<<<<<<<<<<<<<<<<<<<<<<,,,:#@@@@@@@@#=,,>><<<<<<<<<<<<<<<<<<<<<<<<<<<<<<<<<<<<<<<<<<<<<<<<<<<<<<<<<<<<<<<<<<<<<<<<<<<<<<<<<<<<<<<<<<<<<<<<<<<<<<<<<<<<<<<<<<<<<<<<<<<<<<<<<<<<<<<<<<<<<<<<<<<<<<<<<<<<<<<<<<<<<<<<<<<<<<<<<<<<<<<<<<<<<<<<<<",
":;#@@@@@@@@@&:,><<<<<<<<<<<<<<<<<<<<<<<<<<>,,,,%@@@@@@@@@%;,,<,,<<<<<<<<<<<<<<<<<<<<<<<<<<<<<<<<<<<<<<<<<<<<<<<<<<<<<<<<<<<<<<<<<<<<<<<<<<<<<<<<<<<<<<<<<<<<<<<<<<<<<<<<<<<<<<<<<<<<<<<<<<<<<<<<<<<<<<<<<<<<<<<<<<<<<<<<<<<<<<<<<<<<<<<<<<<<<<<<<<<<<<<<<<<<<<<<",
":$@@@@@@@@@@-:,<<<<<<<<<<<<<<<<<<<<<<<<<<<<<,,<-@@@@@@@@@O*:,,,,<<<<<<<<<<<<<<<<<<<<<<<<<<<<<<<<<<<<<<<<<<<<<<<<<<<<<<<<<<<<<<<<<<<<<<<<<<<<<<<<<<<<<<<<<<<<<<<<<<<<<<<<<<<<<<<<<<<<<<<<<<<<<<<<<<<<<<<<<<<<<<<<<<<<<<<<<<<<<<<<<<<<<<<<<<<<<<<<<<<<<<<<<<<<<<<<",
"-$$$$$#$$$$$-;-----------------------------;----$$$$$$$$$#&:,,,,<<<<<<<<<<<<<<<<<<<<<<<<<<<<<<<<<<<<<<<<<<<<<<<<<<<<<<<<<<<<<<<<<<<<<<<<<<<<<<<<<<<<<<<<<<<<<<<<<<<<<<<<<<<<<<<<<<<<<<<<<<<<<<<<<<<<<<<<<<<<<<<<<<<<<<<<<<<<<<<<<<<<<<<<<<<<<<<<<<<<<<<<<<<<<<<<",
";-------------================================-------------:,<<,<<<<<<<<<<<<<<<<<<<<<<<<<<<<<<<<<<<<<<<<<<<<<<<<<<<<<<<<<<<<<<<<<<<<<<<<<<<<<<<<<<<<<<<<<<<<<<<<<<<<<<<<<<<<<<<<<<<<<<<<<<<<<<<<<<<<<<<<<<<<<<<<<<<<<<<<<<<<<<<<<<<<<<<<<<<<<<<<<<<<<<<<<<<<<<<<",
",,,<,,,<<,<<<<<<<<<<<<<<<<<<<<<<<<<<<<<<<<<<<<<<<<<,,,,,<<<<,,<<<<<<<<<<<<<<<<<<<<<<<<<<<<<<<<<<<<<<<<<<<<<<<<<<<<<<<<<<<<<<<<<<<<<<<<<<<<<<<<<<<<<<<<<<<<<<<<<<<<<<<<<<<<<<<<<<<<<<<<<<<<<<<<<<<<<<<<<<<<<<<<<<<<<<<<<<<<<<<<<<<<<<<<<<<<<<<<<<<<<<<<<<<<<<<<<<",
"><:<<,<<<<<<<<<<<<<<<<<<<<<<<<<<<<<<<<<<<<<<<<<,<<<,,,,,<>><<<<<<<<<<<<<<<<<<<<<<<<<<<<<<<<<<<<<<<<<<<<<<<<<<<<<<<<<<<<<<<<<<<<<<<<<<<<<<<<<<<<<<<<<<<<<<<<<<<<<<<<<<<<<<<<<<<<<<<<<<<<<<<<<<<<<<<<<<<<<<<<<<<<<<<<<<<<<<<<<<<<<<<<<<<<<<<<<<<<<<<<<<<<<<<<<<<<<"
};
