/* XPM */
static const char *robotech_logo[] = {
/* columns rows colors chars-per-pixel */
"256 64 12 1 ",
"  c gray5",
". c #1F2549",
"X c #1F2648",
"o c #1F254A",
"O c #E4843F",
"+ c #14349A",
"@ c #14359B",
"# c #5B6BA5",
"$ c #9AA6CB",
"% c #DDDDE7",
"& c #FEFEFE",
"* c None",
/* pixels */
"****************************************************************************************************************************************************************************************************************************************************************",
"****************************************************************************************************************************************************************************************************************************************************************",
"****************************************************************************************************************************************************************************************************************************************************************",
"****************************************************************************************************************************************************************************************************************************************************************",
"****************************************************************************************************************************************************************************************************************************************************************",
"****************************************************************************************************************************************************************************************************************************************************************",
"***************************++++++*******************************************************************************************************************************************************************************************************************************",
"***********************+++++++++++++****************************************************************************************************************************************************************************************************************************",
"**********************++++++++++++@@++**************************************************************************************************************************************************************************************************************************",
"********************++++++++++++++@@+++*************************************************************************************************************************************************************************************************************************",
"*******************++++++++++++++++++++++***********************************************************************************************************************************************************************************************************************",
"******************++++++++++++++++++++++++**********************************************************************************************************************************************************************************************************************",
"*****************++++@@+@@+++@@+@@++++++++**********************************************************************************************************************************************************************************************************************",
"*****************+++++@++@++++@++++++++++++*********************************************************************************************************************************************************************************************************************",
"****************++++++++++++++++++++++++++++********************************************************************************************************************************************************************************************************************",
"***************+++++++++++++++++++++++++++++********************************************************************************************************************************************************************************************************************",
"***************++++++++++++++++++++++++++++++*******************************************************************************************************************************************************************************************************************",
"**************+++++#$$$#++++++++++++#$$$#++++*******************************************************************************************************************************************************************************************************************",
"**************++++$%&&&%$#++++++++#$%&&&%$++++******************************************************************************************************************************************************************************************************************",
"**************+++$&&&&&&&$++++++++$&&&&&&&$+++******************************....................*******************************************************************************.........................********************************************************",
"*************+++#&&&&&&&&&$++++++$&&&&&&&&&#++******************************......................****************************************************************************..........................********************************************************",
"*************+++%&&&&&&&&&%+++@++%&&&&&&&&&%+++****************************........................***************************************************************************..........................********************************************************",
"*************++#&&&$&&&&&&&+++@@#&&&&&&&$&&&#++****************************........................***************************************************************************..........................********************************************************",
"*************++$&&%..%&&&&&#++++#&&&&&%#.%&&$++****************************.........................**************************************************************************.........................*********************************************************",
"************+++$&&%  #$&&&&#+##+#&&&&$#  %&&$++****************************.........................***************************************************************************.......................**********************************************************",
"************+++$&&%   .#&&&##OO##&&&$.  .%&&$++****************************.........................****************************************************************************....................************************************************************",
"************+++$&&&#. .#&&&OOOOOO%&&#. .$&&&%++***************************........**********........**********************************************************************************........******************************************************************",
"************+++$&&&&$$$&&&OOOOOOO%&&&$$$&&&&%++***************************.......************.......**********************************************************************************.......*******************************************************************",
"************+++$&&&&&&&&&%OOOOOOOO%&&&&&&&&&$++***************************.......************.......*********.....*********...........**************......****************************.......***********.................********...........***..***********..**",
"************+++$&&&&&&&&&%OOOOOOOO%&&&&&&&&&$++***************************.......************.......*******.........*******............***********..........**************************.......***********..................*****.............**....*********....*",
"************+++$&&&&&&&&&&%OOOOOO%&&&&&&&&&&$++***************************.......***********........*****............*****..............*********............*************************.......***********.................****...............**....*********....*",
"************+++#&&&&&&&&&&&&OOOO%&&&&&&&&&&&#++**************************..........................*****..............****...............*******.............*************************.......**********..................***...............***....*********....*",
"************++++%&&&&&&&&&&&&OO&&&&&&&&&&&&%+++**************************..........................****...............****...............******...............***********************.......***********.................***...............***.....********.....*",
"************++++$&&&&&&&&&&&&&&&&&&&&&&&&&&$+++**************************.........................*****.......*.......****.....****......*****........*.......***********************.......***********.....***************.......***********.....********.....*",
"************++++#%&&&&&&&&&&&&&&&&&&&&&&&&&#+++**************************........................*****......*****......***....******.....*****.....******.....***********************.......***********.....**************......*************.....********.....*",
"************+++++$&&&&&&&&&&&&&&&&&&&&&&&&$+++++*************************.......................******.....*******.....**.....******.....****.....*******.....***********************.......***********....***************.....**************.....********.....*",
"************++++++%&&&&&&&&&&&&&&&&&&&&&&%#+++++************************.......................******.....********.....**.....******.....****.....********....***********************.......**********.....**************.....***************....*********....**",
"************++++++#&&&&&&&&&&&&&&&&&&&&&&#++++++************************......................*******.....********.....**...............*****....*********....**********************.......***********...........********.....***************.................**",
"************+++++++$&&&&&&&&&&&&&&&&&&&&$+++++++************************....................*********....*********.....**...............****.....*********....**********************.......***********...........********....***************..................**",
"************+++++++$&&&&&&&&&&&&&&&&&&&&$+++++++************************.......*****........*********....*********....***...............****.....********.....**********************.......***********...........********....***************..................**",
"***********++++++++%&&&&&&&&&&&&&&&&&&&&$+++++++************************.......*****.........*******.....********.....**.................***.....********.....**********************.......***********...........*******.....***************..................**",
"***********+++++++#&&&&&&&&&&&&&&&&&&&&&&#++++++***********************.......*******........*******.....********.....**.................***.....********.....**********************......************..........********.....***************..................**",
"***********+++++++%&&&&&&&&&&&&&&&&&&&&&&%+++++++**********************.......*******.........******.....********.....**.....******.......**....*********.....*********************.......***********.....**************.....***************.....*******.....***",
"***********++++++$&&&&&&&&&&&&&&&&&&&&&&&&$++++++**********************.......********........******.....********....***.....********.....**....********.....**********************.......***********.....**************.....**************.....********.....***",
"**********+@+++++%&&&&&&&&&&&&&&&&&&&&&&&&%++++++**********************.......********.........*****.....*******.....***....*********....***.....*******.....**********************.......***********.....**************.....**************.....********.....***",
"**********++++++#&&&&&&&&&&&&&&&&&&&&&&&&&&#++++++*********************.......*********........*****.....******......**.....********.....***.....******.....***********************.......***********.....**************.....**************.....********.....***",
"*********++@++++$&&&&&&&&&&&&&&&&&&&&&&&&&&$+++@++********************.......**********.........****......****......***.....********.....***......****......***********************.......***********.....**************......*************....*********.....***",
"*********+++++++&&&&&&&&&&&&&&&&&&&&&&&&&&&%#++@+++*******************.......***********........****...............****.................****...............***********************.......************.................**................***....*********....****",
"********+++++++$&&&&&&&&&&&&&&&&&&&&&&&&&&&&$++++++*******************.......***********........*****..............****.................*****.............************************.......***********..................***................*.....********.....****",
"********+++++++%&&&&&&&&&&&&&&&&&&&&&&&&&&&&$+++++++******************.......***********.........****.............*****................******............*************************.......***********..................***...............**.....********.....****",
"*******+++++++#&&&&&&&&&&&&&&&&&&&&&&&&&&&&&&#+++++++*****************.......************.......******..........*******...............********..........**************************.......***********.................*****..............**.....********.....****",
"******++++++++$&&&&&&&&&&&&&&&&&&&&&&&&&&&&&&$+++++++*****************......**************.....*********......*********.............************......****************************......************................********..........****....*********....*****",
"******++++++++%&&&&&&&&&&&&&&&&&&&&&&&&&&&&&&%++++++++**********************************************************************************************************************************************************************************************************",
"*****++++++++#&&&&&&&&&&&&&&&&&&&&&&&&&&&&&&&&#++++++++*********************************************************************************************************************************************************************************************************",
"****+++++++++$&&&&&&&&&&&&&&&&&&&&&&&&&&&&&&&&$++++++++*********************************************************************************************************************************************************************************************************",
"****+++++++++$&&&&&&&&&&&&&&&&&&&&&&&&&&&&&&&&$+++++++++********************************************************************************************************************************************************************************************************",
"***++++++++++&&&&&&&&&&&&&&&&&&&&&&&&&&&&&&&&&&#++++++++********************************************************************************************************************************************************************************************************",
"***+++++++++#&&&&&&&&&&&&&&&&&&&&&&&&&&&&&&&&&&#+++++++++*******************************************************************************************************************************************************************************************************",
"**++++++++++$&&&&&&&&&&&&&&&&&&&&&&&&&&&&&&&&&&$++++++++++******************************************************************************************************************************************************************************************************",
"*+++++++++++%&&&&&&&&&&&&&&&&&&&&&&&&&&&&&&&&&&%++@+++++++******************************************************************************************************************************************************************************************************",
"*+++++++++++%%%%%%%%%%%%%%%%%%%%%%%%%%%%%%%%%%%%++++++++++******************************************************************************************************************************************************************************************************",
"****************************************************************************************************************************************************************************************************************************************************************",
"****************************************************************************************************************************************************************************************************************************************************************",
"****************************************************************************************************************************************************************************************************************************************************************"
};
